<svg viewBox="0 0 800 500" xmlns="http://www.w3.org/2000/svg">
  <!-- Třída Faktura -->
  <rect x="320" y="10" width="200" height="150" fill="white" stroke="black" />
  <line x1="320" y1="40" x2="520" y2="40" stroke="black" />
  <line x1="320" y1="100" x2="520" y2="100" stroke="black" />
  <text x="420" y="30" text-anchor="middle" font-weight="bold">Faktura</text>
  <text x="330" y="60">- cisloDokladu: String</text>
  <text x="330" y="75">- datumVystaveni: LocalDate</text>
  <text x="330" y="90">- datumSplatnosti: LocalDate</text>
  <text x="330" y="120">+ getPrijemce(): Prijemce</text>
  <text x="330" y="135">+ getCastkyDokladu(): CastkyDokladu</text>
  <text x="330" y="150">+ toString(): String</text>
  
  <!-- Třída Prijemce -->
  <rect x="50" y="200" width="200" height="180" fill="white" stroke="black" />
  <line x1="50" y1="230" x2="250" y2="230" stroke="black" />
  <line x1="50" y1="320" x2="250" y2="320" stroke="black" />
  <text x="150" y="220" text-anchor="middle" font-weight="bold">Prijemce</text>
  <text x="60" y="250">- jmeno: String</text>
  <text x="60" y="265">- prijmeni: String</text>
  <text x="60" y="280">- ulice: String</text>
  <text x="60" y="295">- mesto: String</text>
  <text x="60" y="310">- psc: String</text>
  <text x="60" y="325">- telefon: String</text>
  <text x="60" y="340">- email: String</text>
  <text x="60" y="355">+ toString(): String</text>
  <text x="60" y="370">+ getters()</text>
  
  <!-- Třída CastkyDokladu -->
  <rect x="550" y="200" width="200" height="140" fill="white" stroke="black" />
  <line x1="550" y1="230" x2="750" y2="230" stroke="black" />
  <line x1="550" y1="300" x2="750" y2="300" stroke="black" />
  <text x="650" y="220" text-anchor="middle" font-weight="bold">CastkyDokladu</text>
  <text x="560" y="250">- cenaBezDph: double</text>
  <text x="560" y="265">- cenaSdph: double</text>
  <text x="560" y="280">- sazba: Sazba</text>
  <text x="560" y="315">+ getDph(): double</text>
  <text x="560" y="330">+ toString(): String</text>
  <text x="560" y="345">+ getters()</text>
  
  <!-- Třída Sazba -->
  <rect x="575" y="400" width="150" height="100" fill="white" stroke="black" />
  <line x1="575" y1="430" x2="725" y2="430" stroke="black" />
  <line x1="575" y1="470" x2="725" y2="470" stroke="black" />
  <text x="650" y="420" text-anchor="middle" font-weight="bold">Sazba</text>
  <text x="585" y="450">- zkratka: String</text>
  <text x="585" y="465">- hodnota: double</text>
  <text x="585" y="485">+ toString(): String</text>
  <text x="585" y="500">+ getters()</text>
  
  <!-- Kompozice Faktura -> Prijemce -->
  <line x1="320" y1="100" x2="150" y2="200" stroke="black" />
  <polygon points="320,100 310,95 310,105" fill="black" />
  <circle cx="150" cy="200" r="6" fill="black" />
  <text x="200" y="150" text-anchor="middle">1</text>
  <text x="150" y="190" text-anchor="middle">1</text>
  
  <!-- Kompozice Faktura -> CastkyDokladu -->
  <line x1="520" y1="100" x2="650" y2="200" stroke="black" />
  <polygon points="520,100 530,95 530,105" fill="black" />
  <circle cx="650" cy="200" r="6" fill="black" />
  <text x="570" y="150" text-anchor="middle">1</text>
  <text x="650" y="190" text-anchor="middle">1</text>
  
  <!-- Kompozice CastkyDokladu -> Sazba -->
  <line x1="650" y1="340" x2="650" y2="400" stroke="black" />
  <polygon points="650,340 645,350 655,350" fill="black" />
  <circle cx="650" cy="400" r="6" fill="black" />
  <text x="635" y="370" text-anchor="middle">1</text>
  <text x="635" y="395" text-anchor="middle">1</text>
</svg>
